<svg width="28" height="25" viewBox="0 0 28 25" fill="white" xmlns="http://www.w3.org/2000/svg">
<path d="M4.66667 0C5.22569 0 5.70694 0.399902 5.81389 0.952637L5.88681 1.5625H26.3375C27.3243 1.5625 28.1118 2.55127 27.8347 3.54785L25.2097 12.9248C25.0201 13.5986 24.4076 14.0625 23.7125 14.0625H8.29792L8.74514 16.4062H23.7222C24.3687 16.4062 24.8889 16.9287 24.8889 17.5781C24.8889 18.2275 24.3687 18.75 23.7222 18.75H7.73403C7.21875 18.75 6.7375 18.3496 6.63055 17.7979L3.70125 2.34375H1.16667C0.522569 2.34375 0 1.81885 0 1.17188C0 0.524902 0.522569 0 1.16667 0H4.66667ZM6.22222 22.6562C6.22222 21.3623 7.26736 20.3125 8.55556 20.3125C9.84375 20.3125 10.8889 21.3623 10.8889 22.6562C10.8889 23.9502 9.84375 25 8.55556 25C7.26736 25 6.22222 23.9502 6.22222 22.6562ZM24.8889 22.6562C24.8889 23.9502 23.8437 25 22.5556 25C21.2674 25 20.2222 23.9502 20.2222 22.6562C20.2222 21.3623 21.2674 20.3125 22.5556 20.3125C23.8437 20.3125 24.8889 21.3623 24.8889 22.6562Z" fill="white"/>
</svg>
